<?xml version="1.0" encoding="utf-8"?>
<!-- Generator: Adobe Illustrator 22.1.0, SVG Export Plug-In . SVG Version: 6.00 Build 0)  -->
<svg version="1.1" id="Слой_1" xmlns="http://www.w3.org/2000/svg" xmlns:xlink="http://www.w3.org/1999/xlink" x="0px" y="0px"
	 viewBox="0 0 256 256" style="enable-background:new 0 0 256 256;" xml:space="preserve">
<style type="text/css">
	.st0{fill:#E2E2E2;stroke:#B7B7B7;stroke-miterlimit:10;}
	.st1{fill:#FFFFFF;stroke:#B7B7B7;stroke-miterlimit:10;}
</style>
<g>
	
		<image style="overflow:visible;opacity:0.75;" width="291" height="291" xlink:href="F1CF8A67.png"  transform="matrix(1 0 0 1 -15 -15)">
	</image>
	<g>
		<g>
			<path class="st0" d="M0,215.2C0,232.7,14.3,247,31.8,247h183.3c17.6,0,31.8-14.3,31.8-31.8V31.8C247,14.3,232.7,0,215.2,0H31.8
				C14.3,0,0,14.3,0,31.8V215.2z"/>
			<path class="st1" d="M102.4,109.3v-35h30.8c2.9,0,5.8,0.2,8.5,0.7c2.7,0.5,5.1,1.4,7.2,2.6c2.1,1.3,3.8,3,5,5.2
				c1.3,2.2,1.9,5.1,1.9,8.6c0,6.3-1.9,10.8-5.7,13.6c-3.8,2.8-8.6,4.2-14.5,4.2H102.4L102.4,109.3z M69.5,48.7v149.6H142
				c6.7,0,13.2-0.8,19.6-2.5s12-4.3,17-7.7c5-3.5,8.9-8,11.8-13.5c2.9-5.5,4.4-12,4.4-19.6c0-9.4-2.3-17.3-6.8-24
				c-4.5-6.6-11.4-11.3-20.6-13.9c6.7-3.2,11.8-7.3,15.2-12.4c3.4-5,5.1-11.3,5.1-18.9c0-7-1.2-12.8-3.5-17.6
				c-2.3-4.7-5.6-8.6-9.7-11.4c-4.2-2.9-9.2-4.9-15.1-6.2s-12.4-1.9-19.5-1.9H69.5L69.5,48.7z M102.4,172.7v-41.1h35.8
				c7.1,0,12.8,1.6,17.2,4.9c4.3,3.3,6.5,8.8,6.5,16.4c0,3.9-0.7,7.1-2,9.6c-1.3,2.5-3.1,4.5-5.3,6c-2.2,1.5-4.8,2.5-7.7,3.1
				c-2.9,0.6-6,0.9-9.2,0.9H102.4L102.4,172.7z"/>
		</g>
	</g>
</g>
</svg>
