<?xml version="1.0" encoding="utf-8"?>
<!-- Generator: Adobe Illustrator 22.1.0, SVG Export Plug-In . SVG Version: 6.00 Build 0)  -->
<svg version="1.1" id="Слой_1" xmlns="http://www.w3.org/2000/svg" xmlns:xlink="http://www.w3.org/1999/xlink" x="0px" y="0px"
	 viewBox="0 0 1225 512" style="enable-background:new 0 0 1225 512;" xml:space="preserve">
<style type="text/css">
	.st0{fill:#F2F2F2;}
	.st1{fill:#C4C4C4;}
	.st2{fill:#D3D3D3;}
</style>
<title>HTML5 Logo</title>
<g>
	
		<image style="overflow:visible;opacity:0.75;" width="388" height="534" xlink:href="DF770FB6.png"  transform="matrix(1 0 0 1 420.5031 -8)">
	</image>
	<g>
		<g>
			<path class="st0" d="M462.4,0H485v22.4h20.9V0h22.6v67.9h-22.6V45.3h-20.7v22.6h-22.8 M558.5,22.6h-20V0h62.7v22.6h-20.1v45.3
				h-22.6 M611.1,0h23.7l14.6,23.9L664,0h23.7v67.9h-22.6V34.3l-15.8,24.4l-15.8-24.4v33.7h-22.2 M698.9,0h22.6v45.5h32.1v22.4
				h-54.7"/>
			<path class="st1" d="M461.6,463.6L429.1,99h357.1l-32.5,364.4L607.4,504"/>
			<path class="st2" d="M607.7,473V129h146L725.8,440"/>
			<path class="st0" d="M495.5,173.5h112.2v44.7h-63.2l4.1,45.8h59.1v44.6h-100 M509.6,331h44.9l3.2,35.7l50,13.4v46.7l-91.7-25.6"
				/>
			<path class="st0" d="M719.5,173.5h-112v44.7h107.9 M711.3,264H607.5v44.7h55.1l-5.2,58.1l-49.9,13.4v46.5l91.5-25.4"/>
		</g>
	</g>
</g>
</svg>
