<?xml version="1.0" encoding="utf-8"?>
<!-- Generator: Adobe Illustrator 22.1.0, SVG Export Plug-In . SVG Version: 6.00 Build 0)  -->
<svg version="1.1"
	 id="svg2" inkscape:version="0.48.1 r9760" sodipodi:docname="New document 1" xmlns:cc="http://creativecommons.org/ns#" xmlns:dc="http://purl.org/dc/elements/1.1/" xmlns:inkscape="http://www.inkscape.org/namespaces/inkscape" xmlns:rdf="http://www.w3.org/1999/02/22-rdf-syntax-ns#" xmlns:sodipodi="http://sodipodi.sourceforge.net/DTD/sodipodi-0.dtd" xmlns:svg="http://www.w3.org/2000/svg"
	 xmlns="http://www.w3.org/2000/svg" xmlns:xlink="http://www.w3.org/1999/xlink" x="0px" y="0px" viewBox="0 0 960.5 268.9"
	 style="enable-background:new 0 0 960.5 268.9;" xml:space="preserve">
<style type="text/css">
	.st0{fill:#E8E8E8;stroke:#E8E8E8;stroke-width:1.0821;stroke-linecap:round;stroke-linejoin:round;}
	.st1{fill:#E8E8E8;stroke:#E8E8E8;stroke-width:1.0821;stroke-linecap:round;stroke-linejoin:bevel;}
	.st2{fill:#E8E8E8;stroke:#000000;stroke-width:0.3607;}
	.st3{fill:#E8E8E8;stroke:#000000;stroke-width:0.1804;}
	.st4{fill:#E8E8E8;stroke:#000000;stroke-width:1.0821;stroke-linecap:round;stroke-linejoin:round;}
	.st5{fill:#A4A5A4;}
	.st6{fill:#E8E8E8;stroke:#FFFFFF;stroke-width:0.9973;stroke-linecap:round;stroke-linejoin:round;}
	.st7{fill:#E8E8E8;stroke:#FFFFFF;stroke-width:0.9973;stroke-linecap:round;stroke-linejoin:bevel;}
	.st8{fill:#E8E8E8;stroke:#FFFFFF;stroke-width:0.3324;}
	.st9{fill:#E8E8E8;stroke:#FFFFFF;stroke-width:0.1662;}
	.st10{fill:#E8E8E8;}
</style>
<defs>
	
	
		<inkscape:perspective  id="perspective2491" inkscape:persp3d-origin="270.04437 : 185.57625 : 1" inkscape:vp_x="0 : 278.36438 : 1" inkscape:vp_y="0 : 1000 : 0" inkscape:vp_z="540.08875 : 278.36438 : 1" sodipodi:type="inkscape:persp3d">
		</inkscape:perspective>
	
		<inkscape:perspective  id="perspective2888" inkscape:persp3d-origin="526.18109 : 248.03149 : 1" inkscape:vp_x="0 : 372.04724 : 1" inkscape:vp_y="0 : 1000 : 0" inkscape:vp_z="1052.3622 : 372.04724 : 1" sodipodi:type="inkscape:persp3d">
		</inkscape:perspective>
	
		<inkscape:perspective  id="perspective3803" inkscape:persp3d-origin="0.5 : 0.33333333 : 1" inkscape:vp_x="0 : 0.5 : 1" inkscape:vp_y="0 : 1000 : 0" inkscape:vp_z="1 : 0.5 : 1" sodipodi:type="inkscape:persp3d">
		</inkscape:perspective>
</defs>
<sodipodi:namedview  bordercolor="#666666" borderopacity="1.0" id="base" inkscape:current-layer="layer1" inkscape:cx="225" inkscape:cy="250" inkscape:document-units="px" inkscape:pageopacity="0.0" inkscape:pageshadow="2" inkscape:window-height="876" inkscape:window-maximized="1" inkscape:window-width="1600" inkscape:window-x="0" inkscape:window-y="24" inkscape:zoom="0.719" pagecolor="#ffffff" showgrid="false">
	</sodipodi:namedview>
<g id="g6015" transform="matrix(7.7276072,0,0,7.7276072,2025.5594,-6542.8526)">
	<path id="path2466-5" inkscape:connector-curvature="0" sodipodi:nodetypes="ccccc" class="st0" d="M-246.2,870.5
		c-0.1,4.3,0.2,7.7,0.6,8.8c0.4,1.1,1.8,2.6,4.9,1.9c2.6-0.6,3.8-1.6,4.2-4c0.3-1.7,0.7-5.3,0.8-6.3"/>
	<path id="path2468-0" inkscape:connector-curvature="0" sodipodi:nodetypes="cccc" class="st0" d="M-248.4,848.5
		c0,0-14.3-5.7-13.6,7.3c0.1,2.8,4.2,21,8.8,15.5c2.8-2.6,3.2-3.6,3.2-3.6"/>
	<path id="path2470-7" inkscape:connector-curvature="0" class="st0" d="M-241.8,847.5c-0.5,0.2,7.8-3,12.5,3
		c1.7,2.1-0.3,10.8-4.9,17.7"/>
	<path id="path2472-2" inkscape:connector-curvature="0" sodipodi:nodetypes="cccccccsc" class="st1" d="M-234.2,866.7
		c0,0,0.3,1.5,4.7,0.6c1.9-0.4,0.8,2.5-1.2,3.4c-1.6,0.7-5.2,0.9-5.2-0.1C-236.1,868-234.1,867.4-234.2,866.7
		c-0.1-0.6-1,0.2-1.6-1.2c-0.5-1.3-7.2-11,1.8-9.6c0.3-0.1-2.4-8.6-10.8-8.7c-8.5-0.1-8.2,10.4-8.2,10.4"/>
	<path id="path2474-7" inkscape:connector-curvature="0" sodipodi:nodetypes="cccccc" class="st0" d="M-248.1,869
		c-1.2,1.3-0.8,1.5-3.2,2c-2.4,0.5-1,1-0.1,1.2c2,0.4,3.5,0.9,5.4-1.1c0.5-0.7,0-2.2-0.7-2.5C-247,868.5-247.5,868.3-248.1,869z"/>
	<path id="path2476-1" inkscape:connector-curvature="0" class="st0" d="M-248.1,869c-0.1-0.8,0.3-1.7,0.7-2.8
		c0.6-1.6,2-3.2,0.9-8.4c-0.8-3.8-6.4-0.8-6.4-0.3c0,0.5,0.3,2.6-0.1,5.1c-0.4,3.2,2,5.9,4.9,5.6"/>
	<path id="path2478-4" inkscape:connector-curvature="0" class="st2" d="M-249.5,857.5c0,0.2,0.3,0.6,0.8,0.7
		c0.5,0.1,0.8-0.3,0.9-0.5c0-0.2-0.3-0.4-0.8-0.4C-249.1,857.2-249.4,857.3-249.5,857.5L-249.5,857.5z"/>
	<path id="path2480-8" inkscape:connector-curvature="0" class="st3" d="M-235.6,857.1c0,0.2-0.3,0.6-0.8,0.7
		c-0.5,0.1-0.8-0.3-0.9-0.5c0-0.2,0.3-0.4,0.8-0.4C-236,856.9-235.6,856.9-235.6,857.1L-235.6,857.1z"/>
	<path id="path2482-4" inkscape:connector-curvature="0" class="st4" d="M-234,855.9c0.1,1.4-0.3,2.3-0.3,3.8
		c-0.1,2.1,1,4.6-0.6,7.1"/>
	<path id="path11678" inkscape:connector-curvature="0" class="st5" d="M-250.9,868.3l2.7-0.1l-1.2,1.7l-2.1-0.2L-250.9,868.3z"/>
	<path id="path2464" inkscape:connector-curvature="0" class="st6" d="M-230.4,868c-4,0.8-4.3-0.5-4.3-0.5c4.2-6.3,6-14.3,4.5-16.3
		c-4.2-5.3-11.4-2.8-11.5-2.8l0,0c-0.8-0.2-1.7-0.3-2.7-0.3c-1.8,0-3.2,0.5-4.3,1.3c0,0-12.9-5.3-12.3,6.7
		c0.1,2.6,3.7,19.3,7.9,14.3c1.5-1.9,3-3.4,3-3.4c0.7,0.5,1.6,0.7,2.6,0.7l0.1-0.1c0,0.2,0,0.5,0,0.7c-1.1,1.2-0.8,1.4-2.9,1.9
		c-2.2,0.5-0.9,1.3-0.1,1.5c1,0.3,3.4,0.6,5-1.6l-0.1,0.3c0.4,0.3,0.7,2.2,0.7,3.9c-0.1,1.7-0.1,2.9,0.3,3.8c0.3,0.9,0.7,3,3.5,2.4
		c2.4-0.5,3.6-1.8,3.8-4c0.1-1.6,0.4-1.3,0.4-2.7l0.2-0.7c0.3-2.1,0-2.8,1.5-2.5l0.4,0c1.1,0,2.5-0.2,3.3-0.6
		C-229.7,869.1-228.6,867.7-230.4,868L-230.4,868L-230.4,868z"/>
	<path id="path2466" inkscape:connector-curvature="0" class="st6" d="M-245.3,869.3c-0.1,4,0,8,0.4,8.9c0.4,1,1.2,2.9,4.1,2.2
		c2.4-0.5,3.3-1.5,3.6-3.7c0.3-1.6,0.8-6.1,0.9-7"/>
	<path id="path2468" inkscape:connector-curvature="0" class="st6" d="M-248.7,849.4c0,0-12.9-5.3-12.3,6.7
		c0.1,2.6,3.7,19.3,7.9,14.3c1.5-1.9,2.9-3.3,2.9-3.3"/>
	<path id="path2470" inkscape:connector-curvature="0" class="st6" d="M-241.8,848.4c-0.4,0.1,7.2-2.8,11.5,2.8
		c1.5,2-0.2,10-4.5,16.3"/>
	<path id="path2472" inkscape:connector-curvature="0" class="st7" d="M-234.7,867.5c0,0,0.3,1.4,4.3,0.5c1.8-0.4,0.7,1-1.1,1.9
		c-1.5,0.7-4.8,0.9-4.8-0.1C-236.5,867.3-234.6,868.1-234.7,867.5c-0.1-0.5-1-1.1-1.5-2.4c-0.5-1.2-6.6-10.1,1.7-8.8
		c0.3-0.1-2.2-7.9-10-8c-7.8-0.1-7.5,9.6-7.5,9.6"/>
	<path id="path2474" inkscape:connector-curvature="0" class="st6" d="M-247.5,868.3c-1.1,1.2-0.8,1.4-2.9,1.9
		c-2.2,0.5-0.9,1.3-0.1,1.5c1,0.3,3.4,0.6,5-1.6c0.5-0.7,0-1.8-0.7-2C-246.5,867.8-246.9,867.7-247.5,868.3L-247.5,868.3
		L-247.5,868.3z"/>
	<path id="path2476" inkscape:connector-curvature="0" class="st6" d="M-247.6,868.3c-0.1-0.7,0.2-1.6,0.6-2.6
		c0.6-1.5,1.8-3,0.8-7.7c-0.8-3.5-5.9-0.7-5.9-0.3c0,0.5,0.2,2.4-0.1,4.7c-0.4,3,1.9,5.5,4.5,5.2"/>
	<path id="path2478" inkscape:connector-curvature="0" class="st8" d="M-248.8,857.7c0,0.2,0.3,0.6,0.7,0.7c0.4,0.1,0.8-0.3,0.8-0.4
		c0-0.2-0.3-0.3-0.7-0.4C-248.4,857.4-248.8,857.5-248.8,857.7L-248.8,857.7L-248.8,857.7z"/>
	<path id="path2480" inkscape:connector-curvature="0" class="st9" d="M-236,857.3c0,0.2-0.3,0.6-0.7,0.7c-0.4,0.1-0.8-0.3-0.8-0.4
		c0-0.2,0.3-0.3,0.7-0.4C-236.4,857.1-236,857.2-236,857.3L-236,857.3z"/>
	<path id="path2482" inkscape:connector-curvature="0" class="st6" d="M-234.5,856.2c0.1,1.3-0.3,2.2-0.3,3.5
		c-0.1,2,0.9,4.2-0.6,6.5"/>
	<g>
		<path id="path5731" inkscape:connector-curvature="0" class="st10" d="M-213.9,860.9c0,1-0.3,1.7-0.9,2.3
			c-0.6,0.5-1.4,0.8-2.4,0.8h-4l0,4.6l-1.1,0v-10.7l5.3,0c0.9,0,1.6,0.3,2.1,0.8C-214.1,859.2-213.9,859.9-213.9,860.9
			 M-214.9,860.9c0-1.5-0.7-2.3-2.2-2.3l-3.9,0v4.5h3.7C-215.7,863.1-214.9,862.4-214.9,860.9"/>
		<path id="path5733" inkscape:connector-curvature="0" class="st10" d="M-206,865c0,1.1-0.3,2-0.9,2.7c-0.7,0.7-1.6,1.1-2.9,1.1
			c-0.6,0-1.1-0.1-1.6-0.3c-0.5-0.2-0.8-0.4-1.2-0.8c-0.6-0.7-0.9-1.6-0.9-2.7c0-1.1,0.3-2,0.9-2.7c0.7-0.7,1.6-1.1,2.8-1.1
			c1.3,0,2.3,0.4,2.9,1.1C-206.3,863-206,863.9-206,865 M-207,865c0-2-1-3-2.9-3c-0.9,0-1.6,0.3-2,0.8c-0.2,0.3-0.4,0.6-0.5,0.9
			c-0.1,0.4-0.2,0.8-0.2,1.3c0,0.9,0.2,1.7,0.7,2.2c0.5,0.5,1.2,0.8,2.1,0.8c1,0,1.7-0.3,2.2-0.8c0.2-0.3,0.4-0.6,0.5-0.9
			C-207,865.9-207,865.5-207,865"/>
		<path id="path5735" inkscape:connector-curvature="0" class="st10" d="M-198.5,866.6c0,1.4-1.1,2.2-3.3,2.2
			c-0.7,0-1.2-0.1-1.7-0.2c-0.5-0.1-0.8-0.3-1.1-0.5c-0.2-0.2-0.4-0.4-0.5-0.7c-0.1-0.3-0.2-0.6-0.3-1.1l1,0c0,0.6,0.2,1,0.5,1.3
			c0.4,0.3,1.1,0.5,2,0.5c1.5,0,2.3-0.5,2.3-1.4c0-0.5-0.3-0.9-0.8-1.1c-0.1,0-0.7-0.1-1.8-0.3c-1.1-0.2-1.8-0.3-2.1-0.4
			c-0.6-0.3-0.9-0.8-0.9-1.5c0-0.7,0.3-1.3,0.8-1.6c0.3-0.1,0.6-0.3,1-0.3c0.4-0.1,0.9-0.1,1.4-0.1c2.1,0,3.1,0.8,3.1,2.3h-1
			c0-1.1-0.7-1.6-2.2-1.6c-0.7,0-1.3,0.1-1.7,0.3c-0.4,0.2-0.5,0.6-0.5,1c0,0.4,0.2,0.7,0.7,0.9c0.3,0.1,1,0.2,2,0.3
			c0.9,0.1,1.6,0.2,1.9,0.4C-198.8,865.3-198.5,865.9-198.5,866.6"/>
		<path id="path5737" inkscape:connector-curvature="0" class="st10" d="M-194.1,868.6c-0.2,0-0.3,0.1-0.4,0.1c-0.1,0-0.2,0-0.3,0
			c-0.7,0-1.1-0.1-1.4-0.3c-0.3-0.2-0.4-0.6-0.4-1.2v-4.9h-1.2v-0.7h1.2l0-2.3h0.9v2.3l1.6,0v0.7l-1.6,0v4.7c0,0.4,0.1,0.6,0.2,0.7
			c0.2,0.1,0.4,0.2,0.8,0.2c0.1,0,0.1,0,0.2,0c0.1,0,0.2,0,0.3-0.1L-194.1,868.6"/>
		<path id="path5739" inkscape:connector-curvature="0" class="st10" d="M-186.6,868.3c0,2.1-1.2,3.2-3.6,3.2
			c-1.3,0-2.1-0.2-2.7-0.6c-0.5-0.4-0.7-0.9-0.8-1.7l0.9,0c0.1,0.6,0.3,1,0.6,1.2c0.4,0.3,1,0.5,1.9,0.5c1,0,1.7-0.2,2.1-0.7
			c0.4-0.4,0.6-1.1,0.6-1.9l0-1.3c-0.6,0.9-1.6,1.4-2.9,1.4c-1.2,0-2-0.3-2.7-0.9c-0.3-0.3-0.5-0.7-0.7-1.1
			c-0.1-0.4-0.2-0.9-0.2-1.5c0-1.1,0.3-2,0.9-2.6c0.6-0.7,1.5-1,2.7-1c0.8,0,1.5,0.2,2,0.5c0.2,0.1,0.5,0.4,0.9,0.9l0-1.2h0.9
			L-186.6,868.3 M-187.5,864.8c0-0.8-0.2-1.5-0.7-2c-0.5-0.5-1.1-0.8-2-0.8c-0.9,0-1.6,0.3-2.1,0.8c-0.5,0.5-0.7,1.2-0.7,2.1
			c0,1.9,1,2.8,2.9,2.8c0.4,0,0.8-0.1,1.1-0.2s0.6-0.3,0.9-0.6C-187.8,866.4-187.5,865.7-187.5,864.8"/>
		<path id="path5741" inkscape:connector-curvature="0" class="st10" d="M-181.3,862.2c-0.3-0.1-0.5-0.1-0.8-0.1c-1.5,0-2.3,1-2.3,3
			l0,3.4h-0.9l0-7l0.9,0v1.3h0c0.2-0.5,0.4-0.9,0.7-1.1c0.4-0.2,0.9-0.4,1.6-0.4c0.1,0,0.3,0,0.4,0c0.1,0,0.2,0,0.3,0L-181.3,862.2"
			/>
		<path id="path5743" inkscape:connector-curvature="0" class="st10" d="M-173.7,865.2h-6.6c0,0.8,0.2,1.5,0.7,2
			c0.5,0.6,1.3,0.9,2.2,0.9c1.4,0,2.2-0.6,2.5-1.8h1c-0.1,0.7-0.5,1.3-1.1,1.8c-0.3,0.3-0.7,0.4-1.1,0.6c-0.4,0.1-0.9,0.2-1.4,0.2
			c-1.2,0-2.2-0.4-2.9-1.1c-0.6-0.7-0.9-1.6-0.9-2.7c0-1.1,0.3-2,1-2.7c0.7-0.7,1.6-1,2.8-1c0.6,0,1.2,0.1,1.7,0.3
			c0.5,0.2,0.9,0.5,1.2,0.8C-174,863.1-173.7,864-173.7,865.2 M-174.7,864.6c0-0.7-0.3-1.3-0.8-1.8c-0.5-0.5-1.2-0.8-2-0.8
			c-0.4,0-0.8,0.1-1.1,0.2c-0.3,0.1-0.6,0.3-0.9,0.6c-0.4,0.4-0.7,1.1-0.8,1.9L-174.7,864.6"/>
		<path id="path5724" inkscape:connector-curvature="0" class="st10" d="M-161.7,865.7c0,2.5-1.7,3.8-5.1,3.8c-2,0-3.5-0.4-4.5-1.3
			c-0.8-0.7-1.1-1.8-1.1-3.2h1.4c0,2.3,1.4,3.5,4.2,3.5c1.4,0,2.3-0.2,2.9-0.7c0.5-0.4,0.8-1.1,0.8-2c0-0.9-0.3-1.5-1-1.9
			c-0.4-0.2-1.4-0.4-2.9-0.7c-1.9-0.3-3.2-0.7-3.7-1.1c-0.8-0.5-1.2-1.4-1.2-2.6c0-1.2,0.4-2,1.1-2.6c0.8-0.6,2.1-0.9,3.9-0.9
			c3.3,0,5,1.3,5,4h-1.4c0-2-1.2-3-3.7-3c-1.2,0-2.1,0.2-2.7,0.6c-0.5,0.4-0.8,1-0.8,1.9c0,0.9,0.3,1.5,1,1.8
			c0.4,0.2,1.5,0.5,3.3,0.8c1.7,0.3,2.8,0.7,3.4,1.1C-162.1,863.6-161.7,864.5-161.7,865.7"/>
		<path id="path5726" inkscape:connector-curvature="0" class="st10" d="M-148.2,869.4l-0.8,0.9l-2-1.7c-0.4,0.3-0.9,0.5-1.6,0.6
			c-0.6,0.1-1.3,0.2-2.1,0.2c-2.1,0-3.7-0.6-5-1.9c-1.2-1.3-1.8-2.9-1.8-4.9c0-2.1,0.6-3.7,1.8-4.9c1.2-1.2,2.8-1.8,4.9-1.8
			c1.1,0,2,0.2,2.9,0.5c0.8,0.3,1.6,0.8,2.2,1.5c1.1,1.2,1.7,2.8,1.7,4.8c0,1.1-0.2,2.1-0.5,3c-0.3,0.8-0.9,1.6-1.6,2.2
			L-148.2,869.4 M-149.3,862.7c0-0.9-0.1-1.7-0.4-2.4c-0.2-0.7-0.6-1.3-1.1-1.8c-1-1.1-2.3-1.6-3.9-1.6c-1.6,0-3,0.5-4,1.5
			c-1,1-1.5,2.4-1.5,4.2c0,1.7,0.5,3.1,1.5,4.2c1,1,2.3,1.6,3.9,1.6c0.8,0,1.5-0.1,2.2-0.4c0.6-0.2,1.2-0.6,1.7-1.1
			C-149.8,865.9-149.3,864.5-149.3,862.7"/>
		<path id="path5728" inkscape:connector-curvature="0" class="st10" d="M-137.8,869.1l-9.3,0v-12.9l1.3,0v11.8h8.1L-137.8,869.1"/>
	</g>
</g>
</svg>
